<svg width="32" height="32" viewBox="0 0 32 36" fill="none" xmlns="http://www.w3.org/2000/svg">
<rect y="2" width="32" height="32" rx="10" fill="#147B74"/>
<path d="M7.792 17.552C7.792 15.888 8.152 14.408 8.872 13.112C9.592 11.8 10.592 10.784 11.872 10.064C13.168 9.328 14.632 8.96 16.264 8.96C18.264 8.96 19.976 9.488 21.4 10.544C22.824 11.6 23.776 13.04 24.256 14.864H19.744C19.408 14.16 18.928 13.624 18.304 13.256C17.696 12.888 17 12.704 16.216 12.704C14.952 12.704 13.928 13.144 13.144 14.024C12.36 14.904 11.968 16.08 11.968 17.552C11.968 19.024 12.36 20.2 13.144 21.08C13.928 21.96 14.952 22.4 16.216 22.4C17 22.4 17.696 22.216 18.304 21.848C18.928 21.48 19.408 20.944 19.744 20.24H24.256C23.776 22.064 22.824 23.504 21.4 24.56C19.976 25.6 18.264 26.12 16.264 26.12C14.632 26.12 13.168 25.76 11.872 25.04C10.592 24.304 9.592 23.288 8.872 21.992C8.152 20.696 7.792 19.216 7.792 17.552Z" fill="#FAFAFA"/>
</svg>
